<svg width="12" height="13" viewBox="0 0 12 13" fill="none" xmlns="http://www.w3.org/2000/svg">
<g id="Reminder">
<path id="Vector" d="M9.09889 4.40299C9.09889 3.50046 8.74037 2.63489 8.10218 1.99671C7.464 1.35853 6.59844 1 5.69591 1C4.79338 1 3.92782 1.35853 3.28963 1.99671C2.65145 2.63489 2.29292 3.50046 2.29292 4.40299C2.29292 8.37313 0.591431 9.50746 0.591431 9.50746H10.8004C10.8004 9.50746 9.09889 8.37313 9.09889 4.40299Z" stroke="#0C0C0C" stroke-linecap="round" stroke-linejoin="round"/>
<path id="Vector_2" d="M6.67711 11.7761C6.5774 11.948 6.43427 12.0907 6.26207 12.1899C6.08987 12.2891 5.89464 12.3413 5.69592 12.3413C5.49719 12.3413 5.30196 12.2891 5.12976 12.1899C4.95756 12.0907 4.81444 11.948 4.71472 11.7761" stroke="#0C0C0C" stroke-linecap="round" stroke-linejoin="round"/>
</g>
</svg>
