<svg width="10" height="10" viewBox="0 0 10 10" fill="none" xmlns="http://www.w3.org/2000/svg">
<g id="Group 25527">
<path id="Vector" d="M7.51496 4.13381C7.70585 3.51469 7.64299 2.84511 7.3402 2.27235C7.03741 1.69958 6.51949 1.27056 5.90037 1.07967C5.28126 0.88877 4.61168 0.951633 4.03892 1.25443C3.46615 1.55722 3.03713 2.07514 2.84624 2.69425C2.0065 5.41767 0.59939 5.8359 0.59939 5.8359L7.60247 7.99523C7.60247 7.99523 6.67521 6.85722 7.51496 4.13381Z" fill="#8983F4" stroke="#8983F4" stroke-linecap="round" stroke-linejoin="round"/>
<g id="Vector_2">
<path d="M4.29417 8.67935C4.18941 8.77618 4.06105 8.84378 3.92194 8.8754C3.78284 8.90702 3.63787 8.90153 3.50155 8.8595C3.36524 8.81747 3.24235 8.74036 3.14521 8.6359C3.04806 8.53144 2.98006 8.40329 2.94802 8.26428" fill="#8983F4"/>
<path d="M4.29417 8.67935C4.18941 8.77618 4.06105 8.84378 3.92194 8.8754C3.78284 8.90702 3.63787 8.90153 3.50155 8.8595C3.36524 8.81747 3.24235 8.74036 3.14521 8.6359C3.04806 8.53144 2.98006 8.40329 2.94802 8.26428" stroke="#8983F4" stroke-linecap="round" stroke-linejoin="round"/>
</g>
</g>
</svg>
